<svg id="check" xmlns="http://www.w3.org/2000/svg" width="32.115" height="30" viewBox="0 0 32.115 30">
  <g id="Group_9" data-name="Group 9">
    <g id="Group_8" data-name="Group 8">
      <path id="Path_21" data-name="Path 21" d="M33.483.151a25.889,25.889,0,0,0-2.722.256A13.048,13.048,0,0,0,28.2.9a9.682,9.682,0,0,0-2.1,1.618A44.205,44.205,0,0,0,21.71,7.629a82.475,82.475,0,0,0-5.373,7.879q-2.5,4.15-4.66,8.618a15.062,15.062,0,0,0-3.622-4.267,5.142,5.142,0,0,0-2.732-1.125,4.328,4.328,0,0,0-2.178.847c-.873.566-1.31,1.119-1.31,1.666q0,.593,1.2,1.756a34.443,34.443,0,0,1,4.208,4.9,17.318,17.318,0,0,0,1.483,1.9,4.138,4.138,0,0,0,2.239.347q2.6,0,3.095-.616a21.6,21.6,0,0,0,1.8-3.543,77.736,77.736,0,0,1,8.083-14.108A58.247,58.247,0,0,1,32.813,1.727a10.485,10.485,0,0,0,.97-.849.617.617,0,0,0,.166-.4C33.95.261,33.794.151,33.483.151Z" transform="translate(-1.835 -0.151)" fill="#99bf10" fill-rule="evenodd"/>
    </g>
  </g>
</svg>
