<svg xmlns="http://www.w3.org/2000/svg" width="20.537" height="11.272" viewBox="0 0 20.537 11.272">
  <g id="dropdown2" transform="translate(80.536 -168) rotate(90)">
    <g id="Group_11" data-name="Group 11" transform="translate(168 59.999)">
      <g id="Group_10" data-name="Group 10" transform="translate(0)">
        <path id="Path_22" data-name="Path 22" d="M170.434,50a.445.445,0,0,0-.307.12.4.4,0,0,0,0,.581l10.1,9.567-10.1,9.567a.4.4,0,0,0,0,.581.451.451,0,0,0,.613,0l10.405-9.858a.4.4,0,0,0,0-.581L170.74,50.119A.445.445,0,0,0,170.434,50Z" transform="translate(-170 -49.999)" fill="#99bf10"/>
      </g>
    </g>
  </g>
</svg>
