<svg xmlns="http://www.w3.org/2000/svg" width="30.427" height="30" viewBox="0 0 30.427 30">
  <path id="email" d="M8.224,16.386a.89.89,0,0,0-.713.5,1.146,1.146,0,0,0-.078.179A1.664,1.664,0,0,0,8.046,18.9c.228.152.275.166.421.255l1.491.859,2.982,1.725,5.7,3.234,4.1,7.464,1.07,1.919.535.97a2.31,2.31,0,0,0,.745.821,2.307,2.307,0,0,0,3.239-.759l.128-.269.057-.141.1-.255.2-.511.788-2.04q3.146-8.162,6.178-16.365l1.509-4.107.193-.531.093-.255.118-.4A3.133,3.133,0,0,0,37.618,8.8a3.368,3.368,0,0,0-4.244-2.1l-1.106.411-2.1.773-4.2,1.57q-8.393,3.106-16.757,6.367a.708.708,0,0,0-.553.821.747.747,0,0,0,.963.293l.118-.035q8.56-2.706,17.046-5.522L31.03,9.96l2.14-.711.531-.179a4.711,4.711,0,0,1,.449-.141.9.9,0,0,1,1.1.635.812.812,0,0,1,0,.431,4.433,4.433,0,0,1-.153.418l-.2.507-1.591,4.076Q30.2,23.153,27.2,31.349L26.45,33.42l-.157.431-.357-.621-1.12-1.888-4.28-7.126a29.483,29.483,0,0,0,8.507-8.4c.032-.062-.125-.286-.357-.514s-.471-.383-.531-.345h0A29.516,29.516,0,0,0,19.5,23.208l-5.8-2.926-3.1-1.56-1.555-.776-.193-.1c-.025-.017-.054-.021-.071-.038a.349.349,0,0,1-.1-.1.359.359,0,0,1-.021-.3h0a2.118,2.118,0,0,0,0-.763A.412.412,0,0,0,8.224,16.386Z" transform="translate(-7.351 -6.524)" fill="#99bf10"/>
</svg>
