<svg id="ig-white" xmlns="http://www.w3.org/2000/svg" width="40.793" height="40" viewBox="0 0 40.793 40">
  <g id="Group_14" data-name="Group 14">
    <g id="Group_13" data-name="Group 13">
      <path id="Path_25" data-name="Path 25" d="M28.045,0h-15.3A12.627,12.627,0,0,0,0,12.5v15A12.627,12.627,0,0,0,12.748,40h15.3A12.627,12.627,0,0,0,40.793,27.5v-15A12.627,12.627,0,0,0,28.045,0Zm8.923,27.5a8.848,8.848,0,0,1-8.923,8.75h-15.3A8.848,8.848,0,0,1,3.824,27.5v-15a8.848,8.848,0,0,1,8.923-8.75h15.3a8.848,8.848,0,0,1,8.923,8.75Z" fill="#fff"/>
    </g>
  </g>
  <g id="Group_16" data-name="Group 16" transform="translate(12.151 11.754)">
    <g id="Group_15" data-name="Group 15">
      <path id="Path_26" data-name="Path 26" d="M136.246,128a8.246,8.246,0,1,0,8.246,8.246A8.246,8.246,0,0,0,136.246,128Zm0,13.4a5.154,5.154,0,1,1,5.154-5.154A5.161,5.161,0,0,1,136.246,141.4Z" transform="translate(-128 -128)" fill="#fff"/>
    </g>
  </g>
  <g id="Group_18" data-name="Group 18" transform="translate(27.189 7.953)">
    <g id="Group_17" data-name="Group 17">
      <circle id="Ellipse_3" data-name="Ellipse 3" cx="2.769" cy="2.769" r="2.769" fill="#fff"/>
    </g>
  </g>
</svg>
