<svg xmlns="http://www.w3.org/2000/svg" xmlns:xlink="http://www.w3.org/1999/xlink" width="234" height="60.765" viewBox="0 0 234 60.765">
  <defs>
    <clipPath id="clip-path">
      <rect id="Rectangle_1" data-name="Rectangle 1" width="234" height="60.765" fill="none"/>
    </clipPath>
  </defs>
  <g id="logo" transform="translate(0 5.337)">
    <g id="Logo-2" data-name="Logo" transform="translate(0 -5.337)">
      <g id="Ebene_1" data-name="Ebene 1">
        <g id="Group_1" data-name="Group 1" clip-path="url(#clip-path)">
          <path id="Path_1" data-name="Path 1" d="M14.328,23.12c1.372-6.428,2.168-7.58,2.649-7.429,1.125.379-.1,3.457-2.649,7.429M7.644,39.07A63.654,63.654,0,0,1,3.705,52.714C.892,58.415.713,47.924,7.644,39.07m65.877-12.75c-1.372,2.456-5.943,10.112-7.59,8.536s4.3-13.933,2.91-17.3c-1.949-4.882-8.029,5.9-11.789,12.311A89.873,89.873,0,0,0,59.014,20.1c0-3.548-2.745-2.835-4.2.091-1.221,2.486-2.388,5.276-2.745,6.2-9.717,19.1-8.907,10.249-4.323-4.806.48-1.395-1.77-4.548-2.251-4.169-1.99,4.169-7.274,16.328-8.756,15.843-1.469-1.516,2.086-12.129,3.651-15.312.563-1.107-1.263-.243-2.608.136-.645.152-1.372-.136-1.565.2a39.305,39.305,0,0,0-2.5,9.4c-.865,1.516-1.757,3.032-2.566,4.4-4.035,6.747-6.505,4.351-4.117-1.243,1.18-2.744,3.253-6.807,2.951-8.384-.563-3.26-4.117-3.032-4.9-4.366,2.306-3.972,2.91-4.412,0-5.17-1.647-.44-2.608,4.306-1.606,6.064A31.193,31.193,0,0,1,12.64,32.2c.137-.667.659-4.548.782-5.215,6.423-7.762,6.2-13.175,4.035-13.8s-6.025.667-8.235,15.995c-3.39,4.184-6.56-.47-3.911-9.415,4.158-13.948,13.9-17.632,10.1-9.627-1-.531-1.167.91-.782,1.334a1.424,1.424,0,0,0,1.139.362,1.5,1.5,0,0,0,1.029-.65C22.082-.94,5.819-.348.535,19.436c-1.812,6.838,1,18.345,8.152,12.129-.124.8-.425,3.487-.563,4.109C-10.211,58.278,7.864,75,12.242,35.1A36.693,36.693,0,0,0,24.086,19.618l.124.106c3.472,2.956,2.388,1.668-1.372,11.674-2.347,6.14,2.168,13.508,9.2,1.925.522-.879,1.029-1.789,1.565-2.8.178,4.291,2.237,5.791,4.584,4.548,1.825-1.046,2.992-4.26,4.735-7.58-1.372,6.277-1.372,12.22,1.372,12.129s5.311-5.67,8.44-12.023a.932.932,0,0,0,.1-.152l2.292-4.215c-.988,3.351-4.241,14.9-3.76,15.616s3.335-.713,3.9-1.668C56.2,35.537,61.8,23.53,63.571,24.182S57.6,39.57,65.314,38.554c3.376-.425,7.974-9.1,9.2-11.689.645-1.622,0-2.335-.961-.576" transform="translate(0 1.607)" fill="#99bf10"/>
          <path id="Path_2" data-name="Path 2" d="M28.611,6.893c-1.139,1.061-1.935,2.426-1.633,3.517,1.125,2.835,4.721,2.016,5.16-2.729,0-1.092-2.278-1.516-3.5-.788" transform="translate(10.023 3.371)" fill="#99bf10"/>
          <path id="Path_3" data-name="Path 3" d="M34.041,7.663c-1.153,1.061-1.935,2.426-1.633,3.517,1.125,2.835,4.721,2.016,5.16-2.729,0-1.092-2.278-1.516-3.513-.788" transform="translate(12.045 3.768)" fill="#99bf10"/>
          <path id="Path_4" data-name="Path 4" d="M74.658.138c-.988-.576-1.908.773-2.168,1.38a106,106,0,0,1-7.411,11.1C66.6,5.262,65.9,1.517,62.128.759s-15.1,13.645-9.4,14.524a.857.857,0,0,0,.7-.209,1.048,1.048,0,0,0,.346-.7,1.145,1.145,0,0,0-.187-.788.947.947,0,0,0-.637-.41c.3-2.213,6.972-10.931,8.235-10.112,1.812.864-4.378,28.305-5.256,35.249,0,2.3,4.474-.2,4.474-.379.384-2.926,1.208-8,2.745-15.858C65.01,28.14,67.961,35.584,73.368,40.86c1,.8,4.694-1.258,3.692-2.107-5.243-4.321-9.607-15.479-11.748-23.287A105.116,105.116,0,0,0,74.068,2.624c.823.394,2.745-1.137.6-2.486M134.743,37.9a3.873,3.873,0,0,1-1.935-.531c-1.619-1.183,3.074-10.112,1.688-13.508-1.908-4.685-5.943.864-9.717,7.186.618-2.153,3.953-11.446,2.868-14.084-2.045-4.882-8.77,8.1-12.585,14.615.659-2.926,1.743-7.186,2.045-9.779,0-3.639-3.253-2.532-4.68.379a60.253,60.253,0,0,0-2.512,6.064,1.8,1.8,0,0,0-.165.379,34.126,34.126,0,0,1-4.694,7.186c-4.117,4.351-2.429-5.519.522-11.219.206-.47-.522-3.639-2-3.442-.727,1.819-1.908,4.548-2.937,6.762-1.7,2.577-5.49,7.126-6.547,6.413-2.745-1.865,7.933-17.966,9.14-14.994.659,1,1.99-1.2,1.647-1.622-3.678-3.305-9.017-.44-11.926,4.548a23,23,0,0,0-2.745,6.853c-.892,1.622-1.825,3.169-2.663,4.548C83.51,40.4,81.04,38.009,83.428,32.4c1.18-2.729,3.253-6.792,2.951-8.369-.563-3.26-4.117-3.032-4.9-4.366,2.292-3.972,2.91-4.412,0-5.17-1.647-.425-2.649,4.548-1.51,6.064-.961,2.153-4.3,8.338-4.337,8.581-.741,1.152.425,1.289,1.167.182a89.218,89.218,0,0,0,3.9-8.081c3.472,2.956,2.388,1.668-1.372,11.674-2.333,6.14,2.168,13.508,9.2,1.925.522-.879,1.043-1.8,1.578-2.835a4.828,4.828,0,0,0,2.621,4.124c2.306,1.152,5.037-1.243,7.246-4.639-.961,6.368-.357,8.945.988,9.006,3.994.227,8.07-7.58,10.142-11.886v-.136L112.7,25.3c-.6,2.107-1.743,10.052-2.21,12.69-.343,1.728.865.622,1.825.243.727-.288,1.372-.243,1.949-1.349,2.21-4.836,6.327-12.356,8.358-14.357s-3.335,13.493-2.374,14.4c.165.2.81.576,1.125.864.6.622,1.043,1.107,1.647.243,1.77-2.4,4.762-9.187,6.409-10.446s-2.553,12.25,1.949,13.069c0,0,1.249.167,1.674.182,6.368.394,75.951,1.395,81.646.3.274,0,.371-.849.137-1.031s-77.1-1.9-80.1-2.213" transform="translate(19.052 -0.001)" fill="#503629"/>
          <rect id="Rectangle_24" data-name="Rectangle 24" width="234" height="60.765" transform="translate(43.918 -9.096)" fill="none"/>
        </g>
      </g>
    </g>
  </g>
</svg>
