<svg xmlns="http://www.w3.org/2000/svg" xmlns:xlink="http://www.w3.org/1999/xlink" width="253.453" height="66.531" viewBox="0 0 253.453 66.531">
  <defs>
    <clipPath id="clip-path">
      <rect id="Rectangle_1" data-name="Rectangle 1" width="242.747" height="57.063" fill="none"/>
    </clipPath>
  </defs>
  <g id="logo1" transform="translate(0 7.337)">
    <g id="Logo" transform="translate(0 -7.337)">
      <g id="Ebene_1" data-name="Ebene 1">
        <g id="Group_1" data-name="Group 1" clip-path="url(#clip-path)">
          <path id="Path_1" data-name="Path 1" d="M14.864,21.9c1.424-6.037,2.25-7.119,2.748-6.976,1.167.356-.1,3.246-2.748,6.976M7.93,36.88A55.526,55.526,0,0,1,3.844,49.693C.925,55.047.74,45.194,7.93,36.88M76.269,24.906c-1.424,2.306-6.165,9.5-7.873,8.016s4.456-13.084,3.018-16.245c-2.022-4.584-8.329,5.538-12.23,11.561a77.4,77.4,0,0,0,2.036-9.169c0-3.332-2.847-2.662-4.357.085-1.267,2.335-2.477,4.955-2.847,5.823-10.08,17.939-9.24,9.624-4.485-4.513.5-1.31-1.837-4.271-2.335-3.915-2.064,3.915-7.546,15.334-9.083,14.878C36.59,30,40.277,20.037,41.9,17.047c.584-1.039-1.31-.228-2.705.128-.669.142-1.424-.128-1.623.185a34.17,34.17,0,0,0-2.591,8.827c-.9,1.424-1.822,2.847-2.662,4.129-4.186,6.336-6.749,4.086-4.271-1.167,1.224-2.577,3.374-6.393,3.061-7.873-.584-3.061-4.271-2.847-5.083-4.1,2.392-3.73,3.018-4.143,0-4.855-1.708-.413-2.705,4.043-1.666,5.695A30.141,30.141,0,0,1,13.112,30.43c.142-.626.683-4.271.812-4.9,6.663-7.29,6.435-12.372,4.186-12.956s-6.25.626-8.542,15.02c-3.517,3.93-6.805-.441-4.058-8.841C9.824,5.657,19.932,2.2,15.988,9.715c-1.039-.5-1.21.854-.812,1.253a1.58,1.58,0,0,0,2.25-.271C22.908-.693,6.036-.138.555,18.442c-1.879,6.421,1.039,17.227,8.457,11.39-.128.755-.441,3.275-.584,3.858-19.021,21.228-.271,36.932,4.271-.541A35.109,35.109,0,0,0,24.986,18.613l.128.1c3.6,2.776,2.477,1.566-1.424,10.963-2.435,5.766,2.25,12.686,9.539,1.808.541-.826,1.068-1.68,1.623-2.634.185,4.029,2.321,5.439,4.755,4.271,1.894-.982,3.1-4,4.912-7.119C43.1,31.9,43.1,37.478,45.944,37.392s5.51-5.325,8.756-11.29a.868.868,0,0,0,.1-.142L57.177,22c-1.025,3.146-4.4,14-3.9,14.665S56.736,36,57.319,35.1c.982-1.538,6.791-12.814,8.628-12.2s-6.193,14.451,1.808,13.5c3.5-.4,8.272-8.542,9.539-10.977.669-1.523,0-2.193-1-.541" transform="translate(0 1.319)" fill="#99bf10"/>
          <path id="Path_2" data-name="Path 2" d="M28.674,6.871c-1.182,1-2.007,2.278-1.694,3.3,1.167,2.662,4.9,1.894,5.353-2.563,0-1.025-2.363-1.424-3.631-.74" transform="translate(11.404 2.768)" fill="#99bf10"/>
          <path id="Path_3" data-name="Path 3" d="M34.1,7.641c-1.2,1-2.007,2.278-1.694,3.3,1.167,2.662,4.9,1.894,5.353-2.563,0-1.025-2.363-1.424-3.645-.74" transform="translate(13.705 3.094)" fill="#99bf10"/>
          <path id="Path_4" data-name="Path 4" d="M75.537.129c-1.025-.541-1.979.726-2.25,1.3A99.46,99.46,0,0,1,65.6,11.846c1.58-6.905.854-10.422-3.061-11.134S46.877,13.527,52.786,14.352a.954.954,0,0,0,1.082-.854,1,1,0,0,0-.854-1.125c.313-2.079,7.233-10.265,8.542-9.5,1.879.812-4.542,26.581-5.453,33.1,0,2.164,4.641-.185,4.641-.356.4-2.748,1.253-7.517,2.847-14.892,1.936,5.695,5,12.686,10.607,17.64,1.039.755,4.869-1.182,3.83-1.979-5.439-4.058-9.966-14.536-12.187-21.869A98.9,98.9,0,0,0,74.925,2.464c.854.37,2.847-1.068.626-2.335m62.317,35.465a4.342,4.342,0,0,1-2.007-.5c-1.68-1.111,3.189-9.5,1.751-12.686-1.979-4.4-6.165.812-10.08,6.749.641-2.022,4.1-10.749,2.976-13.227-2.121-4.584-9.1,7.6-13.056,13.725.683-2.748,1.808-6.749,2.121-9.183,0-3.417-3.374-2.378-4.855.356a53.725,53.725,0,0,0-2.605,5.695,1.608,1.608,0,0,0-.171.356,31.935,31.935,0,0,1-4.869,6.749c-4.271,4.086-2.52-5.182.541-10.536.214-.441-.541-3.417-2.079-3.232-.755,1.708-1.979,4.271-3.047,6.35-1.765,2.42-5.695,6.692-6.791,6.022-2.847-1.751,8.229-16.871,9.482-14.081.683.94,2.064-1.125,1.708-1.523-3.816-3.1-9.354-.413-12.372,4.271a20.473,20.473,0,0,0-2.847,6.435c-.925,1.523-1.894,2.976-2.762,4.271-4.186,6.336-6.749,4.086-4.271-1.182,1.224-2.563,3.374-6.378,3.061-7.859-.584-3.061-4.271-2.847-5.083-4.1,2.378-3.73,3.018-4.143,0-4.855-1.708-.4-2.748,4.271-1.566,5.695-1,2.022-4.456,7.831-4.5,8.058-.769,1.082.441,1.21,1.21.171A80.692,80.692,0,0,0,81.8,19.948c3.6,2.776,2.477,1.566-1.424,10.963-2.42,5.766,2.25,12.686,9.539,1.808.541-.826,1.082-1.694,1.637-2.662a4.527,4.527,0,0,0,2.719,3.873c2.392,1.082,5.225-1.167,7.517-4.357-1,5.98-.37,8.4,1.025,8.457,4.143.214,8.372-7.119,10.521-11.162v-.128L115,23.763c-.626,1.979-1.808,9.439-2.292,11.917-.356,1.623.9.584,1.894.228.755-.271,1.424-.228,2.022-1.267,2.292-4.542,6.563-11.6,8.671-13.483s-3.46,12.671-2.463,13.526c.171.185.84.541,1.167.812.626.584,1.082,1.039,1.708.228,1.837-2.25,4.94-8.628,6.649-9.81s-2.648,11.5,2.022,12.273c0,0,1.3.157,1.737.171,6.606.37,78.79,1.31,84.7.285.285,0,.384-.8.142-.968s-79.986-1.78-83.089-2.079" transform="translate(21.676 -0.001)" fill="#503629"/>
          <rect id="Rectangle_24" data-name="Rectangle 24" width="242.747" height="57.063" transform="translate(45.56 -8.542)" fill="none"/>
        </g>
      </g>
    </g>
    <path id="Path_43" data-name="Path 43" d="M23.827,21.2a4.632,4.632,0,0,1-1.909-.386,3.59,3.59,0,0,1-1.45-1.187h-.117a14.356,14.356,0,0,1,.117,1.777v4.4H18.847V10.3h1.318l.225,1.465h.078a3.765,3.765,0,0,1,1.455-1.27,4.423,4.423,0,0,1,1.9-.391,3.956,3.956,0,0,1,3.286,1.455,6.406,6.406,0,0,1,1.157,4.082,6.369,6.369,0,0,1-1.177,4.1A3.963,3.963,0,0,1,23.827,21.2Zm-.234-9.717a2.873,2.873,0,0,0-2.373.908,4.673,4.673,0,0,0-.752,2.891v.361a5.356,5.356,0,0,0,.752,3.228,2.86,2.86,0,0,0,2.412.972A2.508,2.508,0,0,0,25.8,18.715a5.325,5.325,0,0,0,.786-3.1,5.126,5.126,0,0,0-.786-3.071A2.586,2.586,0,0,0,23.593,11.479ZM35.985,10.1a6.343,6.343,0,0,1,1.279.117l-.225,1.5a5.522,5.522,0,0,0-1.172-.146,2.853,2.853,0,0,0-2.222,1.055,3.846,3.846,0,0,0-.923,2.627V21H31.1V10.3H32.44l.186,1.982H32.7a4.7,4.7,0,0,1,1.436-1.611A3.232,3.232,0,0,1,35.985,10.1ZM45.448,21l-.322-1.523h-.078a4.5,4.5,0,0,1-1.6,1.362,4.867,4.867,0,0,1-1.987.356,3.575,3.575,0,0,1-2.5-.82,2.992,2.992,0,0,1-.9-2.334q0-3.242,5.186-3.4l1.816-.059V13.92a2.714,2.714,0,0,0-.542-1.86,2.229,2.229,0,0,0-1.733-.6,7.063,7.063,0,0,0-3.027.82l-.5-1.24A7.618,7.618,0,0,1,41,10.365a7.507,7.507,0,0,1,1.89-.244,4.077,4.077,0,0,1,2.837.85,3.546,3.546,0,0,1,.923,2.725V21Zm-3.662-1.143a3.29,3.29,0,0,0,2.378-.83,3.071,3.071,0,0,0,.864-2.324v-.967l-1.621.068a5.9,5.9,0,0,0-2.788.6,1.811,1.811,0,0,0-.854,1.655A1.67,1.67,0,0,0,40.3,19.4,2.209,2.209,0,0,0,41.786,19.857ZM39.872,7.4a.84.84,0,0,1,.879-.957.965.965,0,0,1,.64.225.9.9,0,0,1,.269.732.876.876,0,0,1-.908.967.882.882,0,0,1-.62-.239A.944.944,0,0,1,39.872,7.4Zm3.721,0a.84.84,0,0,1,.879-.957.951.951,0,0,1,.63.225.9.9,0,0,1,.269.732.875.875,0,0,1-.9.967.882.882,0,0,1-.62-.239A.944.944,0,0,1,43.593,7.4Zm13.3,10.684a2.681,2.681,0,0,1-1.113,2.3,5.233,5.233,0,0,1-3.125.811,6.8,6.8,0,0,1-3.32-.674v-1.5a8.03,8.03,0,0,0,1.655.615,6.912,6.912,0,0,0,1.7.225,3.864,3.864,0,0,0,1.953-.405,1.4,1.4,0,0,0,.142-2.3,8.526,8.526,0,0,0-2.114-1.05,11.465,11.465,0,0,1-2.124-.972,2.9,2.9,0,0,1-.937-.942,2.458,2.458,0,0,1-.308-1.26,2.4,2.4,0,0,1,1.064-2.065,4.96,4.96,0,0,1,2.92-.757,8.544,8.544,0,0,1,3.379.7l-.576,1.318a7.756,7.756,0,0,0-2.92-.664,3.359,3.359,0,0,0-1.738.361,1.117,1.117,0,0,0-.586,1,1.213,1.213,0,0,0,.22.732,2.168,2.168,0,0,0,.708.576,15.822,15.822,0,0,0,1.875.791,7,7,0,0,1,2.573,1.4A2.463,2.463,0,0,1,56.894,18.08ZM64.052,21.2a4.917,4.917,0,0,1-3.745-1.445,5.6,5.6,0,0,1-1.372-4.014,6.205,6.205,0,0,1,1.274-4.111A4.233,4.233,0,0,1,63.632,10.1a4.036,4.036,0,0,1,3.184,1.323,5.072,5.072,0,0,1,1.172,3.491v1.025H60.614a4.243,4.243,0,0,0,.952,2.861,3.293,3.293,0,0,0,2.544.977,8.621,8.621,0,0,0,3.418-.723V20.5a8.579,8.579,0,0,1-1.626.532A9.138,9.138,0,0,1,64.052,21.2Zm-.439-9.736a2.647,2.647,0,0,0-2.056.84,3.871,3.871,0,0,0-.9,2.324h5.6a3.564,3.564,0,0,0-.684-2.349A2.406,2.406,0,0,0,63.612,11.459ZM78.075,21V14.076a2.793,2.793,0,0,0-.6-1.953,2.427,2.427,0,0,0-1.865-.645,3.076,3.076,0,0,0-2.461.908,4.585,4.585,0,0,0-.781,3V21H70.751V10.3h1.318l.264,1.465h.078a3.31,3.31,0,0,1,1.4-1.226,4.537,4.537,0,0,1,2-.435,4.065,4.065,0,0,1,2.91.933,3.969,3.969,0,0,1,.977,2.983V21Zm8.408-1.143a5.3,5.3,0,0,0,.83-.063,5.373,5.373,0,0,0,.635-.132V20.9a2.963,2.963,0,0,1-.776.21,5.83,5.83,0,0,1-.923.083q-3.105,0-3.105-3.271V11.557H81.61v-.781l1.533-.674.684-2.285h.938V10.3H87.87v1.26H84.765v6.3a2.167,2.167,0,0,0,.459,1.484A1.6,1.6,0,0,0,86.483,19.857ZM91.708,21H90.087V10.3h1.621ZM89.95,7.4a1.077,1.077,0,0,1,.273-.815,1.012,1.012,0,0,1,1.357,0,1.057,1.057,0,0,1,.283.811,1.074,1.074,0,0,1-.283.815.992.992,0,0,1-1.357,0A1.1,1.1,0,0,1,89.95,7.4Zm9.717,13.8a4.917,4.917,0,0,1-3.745-1.445,5.6,5.6,0,0,1-1.372-4.014,6.205,6.205,0,0,1,1.274-4.111A4.233,4.233,0,0,1,99.247,10.1a4.036,4.036,0,0,1,3.184,1.323,5.072,5.072,0,0,1,1.172,3.491v1.025H96.229a4.243,4.243,0,0,0,.952,2.861,3.293,3.293,0,0,0,2.544.977,8.621,8.621,0,0,0,3.418-.723V20.5a8.579,8.579,0,0,1-1.626.532A9.138,9.138,0,0,1,99.667,21.2Zm-.439-9.736a2.647,2.647,0,0,0-2.056.84,3.871,3.871,0,0,0-.9,2.324h5.6a3.564,3.564,0,0,0-.684-2.349A2.406,2.406,0,0,0,99.228,11.459ZM111.249,10.1a6.343,6.343,0,0,1,1.279.117l-.225,1.5a5.522,5.522,0,0,0-1.172-.146,2.853,2.853,0,0,0-2.222,1.055,3.846,3.846,0,0,0-.923,2.627V21h-1.621V10.3H107.7l.186,1.982h.078a4.7,4.7,0,0,1,1.436-1.611A3.232,3.232,0,0,1,111.249,10.1Zm6.738,9.756a5.3,5.3,0,0,0,.83-.063,5.373,5.373,0,0,0,.635-.132V20.9a2.963,2.963,0,0,1-.776.21,5.83,5.83,0,0,1-.923.083q-3.105,0-3.105-3.271V11.557h-1.533v-.781l1.533-.674.684-2.285h.938V10.3h3.105v1.26h-3.105v6.3a2.167,2.167,0,0,0,.459,1.484A1.6,1.6,0,0,0,117.987,19.857Z" transform="translate(134.001 33.39)" fill="#6f6f6f"/>
  </g>
</svg>
