<svg xmlns="http://www.w3.org/2000/svg" width="29.653" height="30" viewBox="0 0 29.653 30">
  <path id="person" d="M4.242,32.571q13.915-.114,27.831-.4H32.1a.686.686,0,0,0,.67-.7l-.032-1.581a15.365,15.365,0,0,0-.082-1.673A4.4,4.4,0,0,0,30.7,25.233h0c-.534-.342-1.085-.24-1.167.035h0c.1-.278-.225-.633-.727-.832l-.142-.054-6.009-2.252.035-1.714a8.776,8.776,0,0,0,2.53-4.712,9.27,9.27,0,0,0,.136-1.442l.022-1.316.038-2.65.019-1.319V8.655L25.4,8.238a5.468,5.468,0,0,0-.152-.787,6.17,6.17,0,0,0-1.61-2.66,8.039,8.039,0,0,0-11.006-.082,6.344,6.344,0,0,0-1.7,2.676,5.693,5.693,0,0,0-.174.825l-.044.433v5.61a9.949,9.949,0,0,0,.114,1.493A9.13,9.13,0,0,0,13.2,20.553v1.23L6.744,24.057a7.59,7.59,0,0,0-1.047.436,5.117,5.117,0,0,0-1.012.731A4.924,4.924,0,0,0,3.36,27.3a5.177,5.177,0,0,0-.231,1.218c-.022.459,0,.686,0,1.034l.016,1.917h0a1.094,1.094,0,0,0,1.1,1.1Zm1.265-4.56a2.653,2.653,0,0,1,.737-1.11,2.871,2.871,0,0,1,.544-.386,4.981,4.981,0,0,1,.721-.281l7.242-2.53a1.173,1.173,0,0,0,.784-1.107V20.1a1.17,1.17,0,0,0-.37-.857,6.92,6.92,0,0,1-2.081-3.877A7.72,7.72,0,0,1,13,14.243V8.715l.025-.218a3.8,3.8,0,0,1,.089-.462,4.111,4.111,0,0,1,1.04-1.717,5.96,5.96,0,0,1,8.084-.073,4.251,4.251,0,0,1,1.148,1.743,3.555,3.555,0,0,1,.1.481l.035.234v.316l.019,1.309.041,2.612L23.6,14.25a7.992,7.992,0,0,1-.066,1.17,7.249,7.249,0,0,1-2.109,4.137l-.022.025a.718.718,0,0,0-.206.519l.051,2.5v.028a.683.683,0,0,0,.471.633l6.724,2.214c.509.168.99.082,1.088-.2-.089.291.187.633.544.9l.1.076a3.191,3.191,0,0,1,1.23,2.214c.038.389,0,.968,0,1.467v.835Q18.391,30.5,5.374,30.392v-.825a4.345,4.345,0,0,1,.133-1.559Z" transform="translate(-3.119 -2.571)" fill="#99bf10"/>
</svg>
