<svg xmlns="http://www.w3.org/2000/svg" width="36.839" height="36.833" viewBox="0 0 36.839 36.833">
  <g id="tel" transform="translate(9.767 -0.969) rotate(19)">
    <path id="Path_29" data-name="Path 29" d="M3.3.627h0A1.46,1.46,0,0,0,3.026.284,1.388,1.388,0,0,0,2.692,0h0A3.977,3.977,0,0,0,0,2.71a1.411,1.411,0,0,0,.274.326A1.356,1.356,0,0,0,.6,3.31h0A3.986,3.986,0,0,0,3.3.627Z" transform="translate(21.968 4.721)" fill="#99bf10"/>
    <path id="Path_30" data-name="Path 30" d="M.913,0A1.25,1.25,0,0,0,.476.046h0A5.6,5.6,0,0,0,.491,4.6a1.1,1.1,0,0,0,.425.044A1.126,1.126,0,0,0,1.343,4.6h0a5.6,5.6,0,0,0,0-4.552h0A1.235,1.235,0,0,0,.913,0Z" transform="translate(15.767 0)" fill="#99bf10"/>
    <path id="Path_31" data-name="Path 31" d="M4.64.914A1.235,1.235,0,0,0,4.6.477h0A5.6,5.6,0,0,0,.046.49,1.208,1.208,0,0,0,0,.917a1.188,1.188,0,0,0,.042.425h0a5.609,5.609,0,0,0,4.552,0A1.25,1.25,0,0,0,4.64.914Z" transform="translate(25.358 12.406)" fill="#99bf10"/>
    <path id="Path_32" data-name="Path 32" d="M2.427,17.674a12.863,12.863,0,0,0,1.1,1.294l1.083,1.1,2.17,2.18,2.183,2.17L10.067,25.5a12.842,12.842,0,0,0,1.3,1.09,12.394,12.394,0,0,0,6.257,2.335A12.154,12.154,0,0,0,28.87,23.384a.527.527,0,0,0-.181-.7h0a.52.52,0,0,0,.26-.659l-.03-.053a12.626,12.626,0,0,0-3.379-3.55,13.626,13.626,0,0,0-4.5-2.025,1.054,1.054,0,0,0-.962.247l-.026.026-1.92,1.8a1.976,1.976,0,0,1-2.354.1,2.963,2.963,0,0,1-.329-.283l-.471-.481-1.9-1.913-1.916-1.894-.481-.474a2.737,2.737,0,0,1-.283-.329,1.976,1.976,0,0,1-.31-.764,1.95,1.95,0,0,1,.418-1.581L12.3,8.927l.033-.033a1.028,1.028,0,0,0,.237-.945,13.394,13.394,0,0,0-2.045-4.522A12.576,12.576,0,0,0,6.935.035h0A.5.5,0,0,0,6.3.285h0A.55.55,0,0,0,5.585.091l-.059.04A12.112,12.112,0,0,0,1.245,4.955,12.245,12.245,0,0,0,.05,11.44a12.377,12.377,0,0,0,2.378,6.234ZM6.277,1.026h0A.062.062,0,0,1,6.3.98h.02a12.06,12.06,0,0,1,4.116,6.837c-.517.484-1.018.942-1.6,1.531A4.206,4.206,0,0,0,7.775,12.76,4.252,4.252,0,0,0,8.434,14.5a4.973,4.973,0,0,0,.573.708l.471.481,1.9,1.913,1.913,1.9.481.471a5.031,5.031,0,0,0,.708.576,4.251,4.251,0,0,0,5.137-.392c.589-.589,1.047-1.083,1.531-1.6A12.075,12.075,0,0,1,27.984,22.7h-.023l-.046.056a11.011,11.011,0,0,1-10.136,4.064,10.692,10.692,0,0,1-5.051-2.144A10.887,10.887,0,0,1,11.7,23.76L10.62,22.666,8.454,20.483,6.277,18.3,5.19,17.229a10.866,10.866,0,0,1-.909-1.034,10.723,10.723,0,0,1-2.121-5.062A11.01,11.01,0,0,1,6.277,1.026Z" transform="translate(0 1.025)" fill="#99bf10"/>
  </g>
</svg>
