<svg xmlns="http://www.w3.org/2000/svg" width="39.809" height="40" viewBox="0 0 39.809 40">
  <path id="whatsapp-white" d="M34.259,5.813a19.826,19.826,0,0,0-31.2,23.916L.25,40l10.508-2.756a19.8,19.8,0,0,0,9.472,2.413h.008A19.83,19.83,0,0,0,34.259,5.813Zm-14.021,30.5h-.007a16.454,16.454,0,0,1-8.385-2.3l-.6-.357L5.009,35.291l1.664-6.079-.392-.623a16.474,16.474,0,1,1,13.956,7.72ZM29.274,23.97c-.5-.248-2.93-1.446-3.384-1.611s-.784-.248-1.114.248-1.279,1.611-1.568,1.942-.578.372-1.073.124a13.527,13.527,0,0,1-3.983-2.458A14.939,14.939,0,0,1,15.4,18.784c-.289-.5,0-.738.217-1.011a14.01,14.01,0,0,0,1.238-1.694.911.911,0,0,0-.042-.868c-.124-.248-1.114-2.686-1.527-3.677-.4-.965-.81-.835-1.115-.85-.289-.014-.619-.017-.949-.017a1.819,1.819,0,0,0-1.321.62,5.555,5.555,0,0,0-1.733,4.132,9.634,9.634,0,0,0,2.022,5.123c.248.331,3.492,5.333,8.46,7.478a28.348,28.348,0,0,0,2.823,1.043,6.79,6.79,0,0,0,3.119.2c.952-.142,2.93-1.2,3.343-2.355a4.138,4.138,0,0,0,.289-2.355C30.1,24.342,29.769,24.218,29.274,23.97Zm0,0" transform="translate(-0.25)" fill="#fff" fill-rule="evenodd"/>
</svg>
